<svg xmlns="http://www.w3.org/2000/svg" version="1.1" viewBox="2.130000114440918 2.4620001316070557 273.64288330078125 352.5054931640625" width="278.00" height="357.00">
<g stroke-width="2.00" fill="none" stroke-linecap="butt">
<path stroke="#cc9d40" vector-effect="non-scaling-stroke" d="&#xA;  M 185.20 9.45&#xA;  L 174.18 24.99"/>
<path stroke="#d88648" vector-effect="non-scaling-stroke" d="&#xA;  M 21.85 40.20&#xA;  L 2.13 40.00"/>
<path stroke="#e96d4e" vector-effect="non-scaling-stroke" d="&#xA;  M 234.50 48.52&#xA;  L 216.92 56.01"/>
<path stroke="#f54c5c" vector-effect="non-scaling-stroke" d="&#xA;  M 21.72 216.96&#xA;  Q 12.00 221.12 3.18 226.73&#xA;  Q 2.76 227.00 2.75 227.50&#xA;  L 2.58 235.29"/>
<path stroke="#dd4767" vector-effect="non-scaling-stroke" d="&#xA;  M 176.39 207.15&#xA;  Q 169.61 207.55 162.30 208.37&#xA;  C 155.33 209.15 148.91 209.15 142.14 209.25&#xA;  Q 139.22 209.30 135.98 211.28"/>
<path stroke="#d03d72" vector-effect="non-scaling-stroke" d="&#xA;  M 78.65 236.41&#xA;  Q 77.76 245.70 78.78 254.66"/>
<path stroke="#f54c5c" vector-effect="non-scaling-stroke" d="&#xA;  M 67.42 198.52&#xA;  Q 60.97 193.46 49.29 194.76"/>
<path stroke="#b93b7a" vector-effect="non-scaling-stroke" d="&#xA;  M 274.45 332.53&#xA;  Q 265.96 328.42 256.64 326.88"/>
</g>
<path fill="#b9b33d" d="&#xA;  M 185.20 9.45&#xA;  L 174.18 24.99&#xA;  Q 158.66 20.57 147.53 20.57&#xA;  Q 102.39 20.56 57.25 20.57&#xA;  Q 43.22 20.57 38.39 22.14&#xA;  Q 26.03 26.15 21.85 40.20&#xA;  L 2.13 40.00&#xA;  Q 3.83 24.63 14.14 14.87&#xA;  Q 22.25 7.20 33.99 4.05&#xA;  Q 39.76 2.49 52.21 2.47&#xA;  Q 77.48 2.43 133.99 2.59&#xA;  Q 147.13 2.63 153.99 3.19&#xA;  Q 164.94 4.08 175.07 6.15&#xA;  Q 179.76 7.11 185.20 9.45&#xA;  Z"/>
<path fill="#de8742" d="&#xA;  M 185.20 9.45&#xA;  Q 216.62 20.37 234.50 48.52&#xA;  L 216.92 56.01&#xA;  Q 215.14 53.51 213.27 51.05&#xA;  Q 211.28 48.44 209.24 46.42&#xA;  Q 194.34 31.66 174.18 24.99&#xA;  L 185.20 9.45&#xA;  Z"/>
<path fill="#f65953" d="&#xA;  M 21.85 40.20&#xA;  L 21.72 216.96&#xA;  Q 12.00 221.12 3.18 226.73&#xA;  Q 2.76 227.00 2.75 227.50&#xA;  L 2.58 235.29&#xA;  L 2.13 40.00&#xA;  L 21.85 40.20&#xA;  Z"/>
<path fill="#f45259" d="&#xA;  M 176.39 207.15&#xA;  Q 169.61 207.55 162.30 208.37&#xA;  C 155.33 209.15 148.91 209.15 142.14 209.25&#xA;  Q 139.22 209.30 135.98 211.28&#xA;  Q 126.14 209.30 122.94 209.07&#xA;  Q 110.27 208.15 97.90 211.25&#xA;  A 0.78 0.78 0.0 0 1 96.93 210.49&#xA;  L 96.93 190.77&#xA;  Q 96.93 190.25 97.44 190.34&#xA;  Q 107.48 192.15 114.00 192.41&#xA;  Q 120.26 192.66 141.75 192.82&#xA;  Q 154.54 192.91 161.69 191.85&#xA;  Q 172.45 190.26 181.48 186.71&#xA;  Q 187.66 184.28 195.73 179.24&#xA;  Q 197.87 177.90 205.74 171.45&#xA;  Q 210.90 167.21 214.53 162.36&#xA;  Q 221.35 153.24 223.10 149.58&#xA;  Q 230.35 134.44 232.37 115.29&#xA;  Q 233.35 106.00 231.89 96.38&#xA;  Q 230.34 86.17 227.82 77.73&#xA;  Q 224.30 65.94 216.92 56.01&#xA;  L 234.50 48.52&#xA;  Q 242.48 60.66 246.11 73.87&#xA;  Q 247.48 78.88 249.12 86.58&#xA;  Q 250.21 91.74 250.65 96.79&#xA;  Q 250.96 100.27 251.23 103.61&#xA;  Q 251.50 106.78 251.31 110.41&#xA;  Q 250.56 124.83 249.29 131.01&#xA;  Q 240.44 174.20 203.56 196.32&#xA;  Q 191.87 203.33 176.39 207.15&#xA;  Z"/>
<path fill="#f65953" d="&#xA;  M 67.42 198.52&#xA;  Q 60.97 193.46 49.29 194.76&#xA;  C 49.11 184.40 49.38 174.18 49.27 164.03&#xA;  Q 49.21 158.53 51.50 153.49&#xA;  C 53.49 149.08 58.50 146.51 63.00 145.76&#xA;  Q 64.36 145.54 72.01 145.58&#xA;  Q 108.81 145.76 146.50 145.89&#xA;  Q 153.68 145.91 158.73 144.91&#xA;  C 166.16 143.44 173.57 140.45 178.17 134.22&#xA;  C 185.02 124.96 187.70 111.64 186.34 100.38&#xA;  Q 185.91 96.80 183.42 90.35&#xA;  Q 178.02 76.38 164.14 71.37&#xA;  Q 151.34 66.75 137.26 66.73&#xA;  Q 87.08 66.63 63.25 66.77&#xA;  Q 59.72 66.79 56.45 66.37&#xA;  A 0.92 0.91 -86.5 0 1 55.65 65.46&#xA;  L 55.65 49.29&#xA;  A 0.55 0.55 0.0 0 1 56.20 48.74&#xA;  Q 93.25 48.60 129.99 48.68&#xA;  Q 146.07 48.71 149.99 49.12&#xA;  Q 162.89 50.48 175.03 55.99&#xA;  Q 183.94 60.03 190.16 66.84&#xA;  Q 199.64 77.22 202.94 90.53&#xA;  Q 203.76 93.80 204.67 99.50&#xA;  Q 205.55 104.93 205.42 108.57&#xA;  Q 204.98 121.11 200.94 131.24&#xA;  Q 195.50 144.86 183.40 153.92&#xA;  Q 176.23 159.29 167.36 161.37&#xA;  C 162.01 162.63 155.63 163.40 149.69 163.47&#xA;  Q 140.80 163.57 135.52 163.53&#xA;  Q 100.41 163.31 69.08 163.64&#xA;  Q 67.34 163.66 67.35 165.39&#xA;  L 67.42 198.52&#xA;  Z"/>
<path fill="#f33e65" d="&#xA;  M 67.42 198.52&#xA;  L 67.52 235.01&#xA;  Q 67.52 236.27 68.78 236.28&#xA;  L 78.65 236.41&#xA;  Q 77.76 245.70 78.78 254.66&#xA;  L 68.29 254.66&#xA;  A 0.61 0.60 1.5 0 0 67.68 255.23&#xA;  Q 67.53 258.24 67.53 261.51&#xA;  Q 67.48 285.11 67.97 319.75&#xA;  C 68.04 324.75 66.68 332.45 64.14 336.67&#xA;  Q 61.84 340.48 57.94 344.52&#xA;  Q 52.17 350.50 43.44 353.38&#xA;  Q 35.03 356.16 26.87 353.65&#xA;  Q 12.32 349.19 5.56 335.69&#xA;  C 2.40 329.38 2.42 322.06 2.49 314.25&#xA;  Q 2.65 296.77 2.58 235.29&#xA;  L 2.75 227.50&#xA;  Q 2.76 227.00 3.18 226.73&#xA;  Q 12.00 221.12 21.72 216.96&#xA;  Q 21.88 270.98 21.83 325.00&#xA;  Q 21.83 327.25 23.48 330.05&#xA;  C 26.77 335.63 34.18 337.06 39.73 334.65&#xA;  C 46.19 331.85 49.15 324.39 49.13 317.50&#xA;  Q 49.05 274.01 49.29 194.76&#xA;  Q 60.97 193.46 67.42 198.52&#xA;  Z"/>
<path fill="#c63b75" d="&#xA;  M 176.39 207.15&#xA;  Q 194.90 224.54 200.10 230.41&#xA;  Q 218.25 250.90 247.14 281.60&#xA;  Q 258.57 293.75 261.79 297.01&#xA;  Q 267.84 303.15 269.42 305.48&#xA;  Q 272.47 309.96 274.36 315.59&#xA;  Q 277.14 323.90 274.45 332.53&#xA;  Q 265.96 328.42 256.64 326.88&#xA;  C 257.70 323.50 257.21 319.17 254.80 316.61&#xA;  Q 248.70 310.11 242.63 303.61&#xA;  Q 210.09 268.75 198.68 256.89&#xA;  Q 195.17 253.24 186.37 243.60&#xA;  Q 177.26 233.62 173.41 230.36&#xA;  Q 162.92 221.47 155.56 217.66&#xA;  Q 148.06 213.78 135.98 211.28&#xA;  Q 139.22 209.30 142.14 209.25&#xA;  C 148.91 209.15 155.33 209.15 162.30 208.37&#xA;  Q 169.61 207.55 176.39 207.15&#xA;  Z"/>
<path fill="#ac3b7f" d="&#xA;  M 256.64 326.88&#xA;  Q 265.96 328.42 274.45 332.53&#xA;  Q 270.80 343.69 261.75 349.34&#xA;  Q 243.73 360.59 224.38 349.35&#xA;  Q 220.56 347.13 212.87 339.13&#xA;  Q 188.06 313.33 186.38 311.53&#xA;  Q 183.41 308.36 180.44 305.20&#xA;  Q 173.84 298.16 148.14 271.88&#xA;  Q 144.22 267.87 140.11 264.68&#xA;  Q 132.44 258.73 123.70 256.32&#xA;  Q 120.41 255.41 116.00 255.38&#xA;  Q 97.50 255.27 78.78 254.66&#xA;  Q 77.76 245.70 78.65 236.41&#xA;  Q 95.81 236.30 113.27 236.56&#xA;  Q 135.20 236.88 152.03 250.54&#xA;  Q 160.62 257.50 168.25 265.54&#xA;  Q 211.33 310.89 228.73 328.62&#xA;  Q 230.21 330.12 233.58 332.88&#xA;  C 237.85 336.37 241.99 337.53 247.19 335.90&#xA;  Q 254.04 333.75 256.64 326.88&#xA;  Z"/>
</svg>